<?xml version="1.0" encoding="UTF-8"?>
<svg xmlns="http://www.w3.org/2000/svg" viewBox="0 0 256 256" role="img" aria-label="SecureVision logo">
  <defs>
    <linearGradient id="sv-primary" x1="0" y1="0" x2="1" y2="1">
      <stop offset="0%" stop-color="#00D1FF" />
      <stop offset="100%" stop-color="#4C7AF2" />
    </linearGradient>
    <linearGradient id="sv-accent" x1="0" y1="0" x2="0" y2="1">
      <stop offset="0%" stop-color="#7CF4FF" />
      <stop offset="100%" stop-color="#7EA7FF" />
    </linearGradient>
    <filter id="soft-shadow" x="-20%" y="-20%" width="140%" height="140%">
      <feDropShadow dx="0" dy="2" stdDeviation="3" flood-color="#000" flood-opacity="0.25" />
    </filter>
  </defs>

  <!-- Shield base -->
  <path filter="url(#soft-shadow)" d="M128 18 L208 62 V162 C208 202 168 236 128 240 C88 236 48 202 48 162 V62 Z" fill="url(#sv-primary)" />

  <!-- Inner shield contour -->
  <path d="M128 32 L196 70 V156 C196 190 162 220 128 224 C94 220 60 190 60 156 V70 Z" fill="none" stroke="rgba(255,255,255,0.35)" stroke-width="4" />

  <!-- Eye motif -->
  <ellipse cx="128" cy="116" rx="46" ry="30" fill="rgba(255,255,255,0.95)" />
  <ellipse cx="128" cy="116" rx="40" ry="24" fill="url(#sv-accent)" />
  <circle cx="128" cy="116" r="10" fill="#0B1F3B" />
  <circle cx="132" cy="112" r="3.5" fill="#CCE6FF" />

  <!-- Scan arcs -->
  <path d="M98 98 a42 28 0 0 1 60 0" stroke="rgba(11,31,59,0.18)" stroke-width="3" fill="none" />
  <path d="M98 134 a42 28 0 0 0 60 0" stroke="rgba(11,31,59,0.18)" stroke-width="3" fill="none" />

  <!-- Circuit accents -->
  <g stroke="#EAF2FF" stroke-width="3" stroke-linecap="round">
    <path d="M60 110 h-10" />
    <circle cx="46" cy="110" r="3" fill="#EAF2FF" />
    <path d="M196 122 h10" />
    <circle cx="210" cy="122" r="3" fill="#EAF2FF" />
    <path d="M128 70 v-10" />
    <circle cx="128" cy="56" r="3" fill="#EAF2FF" />
  </g>

  <!-- Subtle S mark -->
  <path d="M108 168 c-8 0 -14 6 -14 12 c0 10 14 14 24 14 c12 0 24 4 24 14 c0 8 -8 14 -18 14 c-9 0 -18 -4 -24 -10" fill="none" stroke="rgba(255,255,255,0.65)" stroke-width="4" stroke-linecap="round" />

  <!-- Title for accessibility -->
  <title>SecureVision</title>
</svg>